<svg viewBox="0 0 200 200" xmlns="http://www.w3.org/2000/svg" fill="none" stroke="currentColor" stroke-width="11" stroke-linecap="round" stroke-linejoin="round" aria-hidden="true">
  <path d="M 139.23 83.90 L 139.35 84.64 L 139.43 85.39 L 139.49 86.15 L 139.52 86.92 L 139.52 87.69 L 139.48 88.47 L 139.42 89.25 L 139.33 90.03 L 139.20 90.81 L 139.04 91.59 L 138.85 92.38 L 138.63 93.15 L 138.38 93.93 L 138.09 94.70 L 137.77 95.46 L 137.42 96.22 L 137.04 96.96 L 136.62 97.70 L 136.18 98.42 L 135.70 99.13 L 135.19 99.83 L 134.65 100.51 L 134.08 101.17 L 133.48 101.82 L 132.86 102.44 L 132.20 103.05 L 131.51 103.63 L 130.80 104.19 L 130.06 104.72 L 129.30 105.23 L 128.51 105.71 L 127.70 106.16 L 126.86 106.58 L 126.01 106.98 L 125.13 107.34 L 124.23 107.66 L 123.31 107.96 L 122.38 108.22 L 121.43 108.45 L 120.47 108.64 L 119.49 108.79 L 118.50 108.90 L 117.50 108.98 L 116.49 109.02 L 115.47 109.01 L 114.45 108.97 L 113.42 108.89 L 112.39 108.76 L 111.36 108.59 L 110.32 108.39 L 109.29 108.14 L 108.27 107.84 L 107.25 107.51 L 106.23 107.13 L 105.22 106.71 L 104.23 106.25 L 103.25 105.75 L 102.28 105.20 L 101.32 104.61 L 100.39 103.98 L 99.47 103.31 L 98.57 102.60 L 97.70 101.85 L 96.85 101.06 L 96.02 100.23 L 95.23 99.37 L 94.46 98.46 L 93.73 97.53 L 93.02 96.55 L 92.35 95.55 L 91.72 94.51 L 91.12 93.43 L 90.57 92.33 L 90.05 91.20 L 89.57 90.05 L 89.14 88.86 L 88.75 87.65 L 88.41 86.42 L 88.11 85.17 L 87.86 83.90 L 87.66 82.61 L 87.51 81.31 L 87.41 79.99 L 87.36 78.66 L 87.36 77.32 L 87.42 75.97 L 87.53 74.61 L 87.69 73.25 L 87.91 71.89 L 88.19 70.53 L 88.52 69.17 L 88.90 67.82 L 89.35 66.47 L 89.84 65.13 L 90.40 63.81 L 91.01 62.50 L 91.67 61.20 L 92.39 59.92 L 93.17 58.66 L 94.00 57.43 L 94.88 56.22 L 95.82 55.04 L 96.80 53.88 L 97.85 52.76 L 98.94 51.68 L 100.08 50.63 L 101.27 49.62 L 102.51 48.65 L 103.79 47.72 L 105.12 46.84 L 106.49 46.00 L 107.90 45.22 L 109.35 44.48 L 110.84 43.80 L 112.37 43.17 L 113.93 42.60 L 115.52 42.09 L 117.14 41.64 L 118.79 41.25 L 120.47 40.92 L 122.17 40.65 L 123.89 40.45 L 125.62 40.32 L 127.38 40.26 L 129.15 40.26 L 130.93 40.34 L 132.71 40.48 L 134.50 40.70 L 136.30 40.99 L 138.09 41.35 L 139.88 41.78 L 141.67 42.29 L 143.44 42.87 L 145.21 43.53 L 146.95 44.26 L 148.68 45.06 L 150.39 45.94 L 152.08 46.89 L 153.74 47.91 L 155.36 49.00 L 156.96 50.17 L 158.52 51.40 L 160.03 52.71 L 161.51 54.08 L 162.94 55.52 L 164.33 57.02 L 165.66 58.59 L 166.94 60.22 L 168.16 61.91 L 169.32 63.66 L 170.42 65.47 L 171.46 67.33 L 172.43 69.25 L 173.33 71.21 L 174.15 73.22 L 174.91 75.28 L 175.58 77.38 L 176.18 79.52 L 176.70 81.69 L 177.13 83.90 L 177.48 86.14 L 177.74 88.41 L 177.92 90.70 L 178.00 93.01 L 177.99 95.34 L 177.90 97.69 L 177.70 100.04 L 177.42 102.40 L 177.04 104.77 L 176.56 107.14 L 175.99 109.50 L 175.32 111.85 L 174.55 114.19 L 173.69 116.51 L 172.72 118.82 L 171.67 121.10 L 170.51 123.35 L 169.26 125.57 L 167.91 127.76 L 166.47 129.90 L 164.93 132.00 L 163.31 134.06 L 161.59 136.06 L 159.78 138.01 L 157.88 139.89 L 155.90 141.72 L 153.83 143.47 L 151.68 145.16 L 149.45 146.77 L 147.14 148.30 L 144.76 149.76 L 142.31 151.12 L 139.79 152.40 L 137.20 153.58 L 134.54 154.67 L 131.83 155.67 L 129.07 156.56 L 126.25 157.34 L 123.38 158.02 L 120.47 158.60 L 117.51 159.06 L 114.52 159.40 L 111.50 159.63 L 108.45 159.74 L 105.38 159.74 L 102.29 159.61 L 99.19 159.35 L 96.07 158.98 L 92.96 158.47 L 89.84 157.85 L 86.73 157.09 L 83.63 156.21 L 80.54 155.19 L 77.48 154.06 L 74.44 152.79 L 71.43 151.39 L 68.46 149.87 L 65.53 148.22 L 62.65 146.44 L 59.82 144.54 L 57.05 142.52 L 54.35 140.37 L 51.71 138.11 L 49.14 135.72 L 46.65 133.22 L 44.25 130.61 L 41.93 127.88 L 39.71 125.05 L 37.59 122.11 L 35.57 119.07 L 33.65 115.93 L 31.85 112.69 L 30.17 109.37 L 28.61 105.95 L 27.17 102.46 L 25.86 98.88 L 24.69 95.24 L 23.65 91.52 L 22.75 87.74 L 22.00 83.90"/>
</svg>